<svg width="24" height="24" viewBox="0 0 24 24" fill="none" xmlns="http://www.w3.org/2000/svg">
<path d="M14.2549 0H9.68349C4.89539 0 1 3.89475 1 8.6817V12.7996C1 16.3645 3.19064 19.5684 6.4846 20.8734V23.5429C6.4846 23.7237 6.59104 23.8875 6.7564 23.9607C6.81577 23.9871 6.87894 24 6.94165 24C7.0528 24 7.16281 23.9594 7.24851 23.8818L9.89862 21.4813H14.2549C19.043 21.4813 22.9384 17.5866 22.9384 12.7996V8.6817C22.9384 3.89475 19.043 0 14.2549 0ZM22.0243 12.7996C22.0243 17.0827 18.5391 20.5672 14.2549 20.5672H9.72234C9.60894 20.5672 9.49962 20.6092 9.41547 20.6855L7.3987 22.5124V20.5565C7.3987 20.3628 7.27662 20.1901 7.09384 20.1258C3.99582 19.0305 1.9141 16.0865 1.9141 12.7996V8.6817C1.9141 4.39865 5.39933 0.914099 9.68349 0.914099H14.2549C18.5391 0.914099 22.0243 4.39865 22.0243 8.6817V12.7996Z" fill="#6A5CB0"/>
<path d="M18.0095 13.9367L15.2002 12.112C14.8929 11.9125 14.5276 11.8446 14.1694 11.9187C13.811 11.9942 13.5032 12.2058 13.3033 12.5142L13.1712 12.7172C11.9554 12.3155 10.6148 11.8022 9.81229 9.47904L10.1446 9.19028H10.1448C10.715 8.69438 10.775 7.82672 10.2789 7.25541L8.0814 4.72733C7.91576 4.53678 7.627 4.51713 7.43641 4.68226L6.05681 5.88156C4.84631 6.9336 5.41205 8.48999 5.59797 9.00147C5.6062 9.02423 5.61626 9.04613 5.62809 9.06752C5.67608 9.15367 6.82204 11.1984 8.67232 13.0832C10.5302 14.9757 13.8847 16.7236 13.9875 16.7744C14.3707 17.0231 14.8017 17.1422 15.2279 17.1422C15.9764 17.1422 16.7106 16.7753 17.1483 16.1022L18.1439 14.5691C18.2813 14.3571 18.221 14.0741 18.0095 13.9367ZM16.3817 15.6042C15.9697 16.2384 15.119 16.4187 14.4468 15.9853C14.4134 15.9679 11.0812 14.2325 9.32467 12.4432C7.68303 10.7708 6.59306 8.91313 6.4442 8.6538C6.08199 7.63882 6.14607 7.01481 6.65623 6.57161L7.69126 5.67223L9.58889 7.85528C9.75736 8.04898 9.73798 8.3324 9.54492 8.50023L8.98412 8.98762C8.84751 9.10637 8.79371 9.29426 8.84705 9.46702C9.80333 12.574 11.6626 13.1841 13.0201 13.63L13.2178 13.6951C13.4156 13.7621 13.6325 13.6858 13.7456 13.5108L14.0699 13.0118C14.1369 12.9087 14.239 12.8386 14.3578 12.8136C14.4769 12.7882 14.5988 12.8119 14.7021 12.8788L17.1282 14.4544L16.3817 15.6042Z" fill="#6A5CB0"/>
<path d="M13.0123 7.42616C12.769 7.35605 12.5164 7.49755 12.4475 7.74079C12.3785 7.98362 12.5193 8.23623 12.7619 8.30543C13.443 8.49913 13.9853 9.04279 14.1774 9.72434C14.2341 9.92562 14.4176 10.0573 14.6171 10.0573C14.6582 10.0573 14.6999 10.052 14.7414 10.0403C14.9842 9.9716 15.1257 9.7194 15.0572 9.47616C14.7798 8.49154 13.996 7.70601 13.0123 7.42616Z" fill="#6A5CB0"/>
<path d="M16.4906 10.1546C16.5316 10.1546 16.5734 10.1493 16.6149 10.1377C16.8579 10.0689 16.9992 9.8163 16.9307 9.57351C16.3915 7.66181 14.8697 6.13668 12.9594 5.59307C12.7166 5.523 12.4637 5.66537 12.3948 5.90775C12.3258 6.15053 12.4666 6.40314 12.7094 6.47234C14.3167 6.92939 15.5972 8.21306 16.0509 9.82165C16.1078 10.023 16.2911 10.1546 16.4906 10.1546Z" fill="#6A5CB0"/>
<path d="M12.7625 3.4652C12.5193 3.39514 12.2667 3.53664 12.1977 3.77988C12.1287 4.02271 12.2695 4.27532 12.5121 4.34452C15.2359 5.11936 17.4053 7.29391 18.1739 10.0192C18.2306 10.2205 18.4141 10.3522 18.6136 10.3522C18.6546 10.3522 18.6964 10.3469 18.7379 10.3353C18.9807 10.2665 19.1222 10.0139 19.0537 9.77107C18.1996 6.74266 15.7889 4.32665 12.7625 3.4652Z" fill="#6A5CB0"/>
</svg>
