<svg width="93" height="78" viewBox="0 0 93 78" fill="none" xmlns="http://www.w3.org/2000/svg">
<path d="M92.4995 63.6718C88.2961 68.4375 84.1526 73.3566 79.4629 77.6179C79.3558 77.7342 79.1968 77.7894 79.0193 77.772C78.8417 77.7547 78.6593 77.6661 78.5101 77.5247C78.3609 77.3833 78.2563 77.2002 78.2184 77.0134C78.1804 76.8266 78.2119 76.6506 78.3063 76.5222C80.8541 73.0609 83.6752 69.8271 86.5263 66.6316C71.0728 71.1415 51.9875 67.6229 35.4479 56.3993C16.626 43.6292 2.55921 21.7744 0.316205 0.865595C0.300349 0.742171 0.330919 0.629729 0.401545 0.551632C0.472171 0.473535 0.577415 0.435796 0.695393 0.446286C0.813372 0.456776 0.935 0.514676 1.03497 0.607945C1.13494 0.701208 1.20557 0.82266 1.23215 0.947033C4.97838 21.2535 17.7113 42.134 36.1487 54.5652C44.6951 60.2415 53.9225 64.0017 63.0601 65.5317C72.1977 67.0618 80.9803 66.3172 88.6742 63.3602C88.8968 63.2709 89.1645 63.2768 89.4307 63.3768L89.6459 63.1349C83.6431 60.7042 77.7172 57.7997 71.9285 54.4508C70.5838 53.6727 71.3057 51.8035 72.6418 52.5791C78.8518 56.1741 85.223 59.243 91.677 61.7478C91.866 61.8162 92.0472 61.9311 92.2033 62.0814C92.3593 62.2318 92.4847 62.4125 92.5675 62.6061C92.6502 62.7996 92.6875 62.9994 92.6755 63.1861C92.6636 63.3729 92.603 63.5401 92.4995 63.6718Z" fill="#F395B7"/>
</svg>
