<svg width="300" height="214" viewBox="0 0 300 214" fill="none" xmlns="http://www.w3.org/2000/svg">
<rect opacity="0.5" x="80" width="140" height="140" rx="70" fill="#E1F2EF"/>
<rect opacity="0.9" x="100" y="20" width="100" height="100" rx="50" fill="#E1F2EF"/>
<g filter="url(#filter0_d_576_1741)">
<rect x="118" y="38" width="64" height="64" rx="32" fill="url(#paint0_linear_576_1741)" shape-rendering="crispEdges"/>
<g clip-path="url(#clip0_576_1741)">
<path d="M148.149 73.0445L148.149 73.0444L153.451 70.1933C153.605 70.1108 153.7 69.9517 153.701 69.7774C153.701 69.6034 153.607 69.4438 153.454 69.36L148.149 73.0445ZM148.149 73.0445C148.076 73.0837 147.999 73.1021 147.924 73.1021C147.843 73.1021 147.759 73.0803 147.681 73.0337C147.535 72.9466 147.451 72.7971 147.451 72.6271V66.8746C147.451 66.7037 147.536 66.5541 147.683 66.4669L148.149 73.0445ZM148.152 66.4589L153.454 69.36L147.683 66.4669C147.83 66.3798 148.002 66.3769 148.152 66.4589C148.152 66.4589 148.152 66.4589 148.152 66.4589ZM147.857 71.9034V72.74L148.594 72.3438L152.557 70.2128L153.368 69.7763L152.56 69.3338L148.597 67.1655L147.857 66.7606V67.6041V71.9034Z" fill="white" stroke="white"/>
<path d="M161.823 65.1966L161.822 65.1856C161.802 64.9924 161.6 63.2742 160.764 62.4002C159.799 61.3723 158.704 61.2474 158.178 61.1875C158.134 61.1826 158.094 61.178 158.059 61.1732L158.017 61.1688C154.844 60.9381 150.052 60.9066 150.004 60.9064L150 60.9062L149.996 60.9064C149.948 60.9066 145.156 60.9381 141.955 61.1688L141.912 61.1732C141.878 61.1778 141.841 61.182 141.8 61.1868C141.28 61.2468 140.197 61.3719 139.228 62.437C138.433 63.3016 138.203 64.9831 138.179 65.1721L138.177 65.1966C138.169 65.277 138 67.1906 138 69.1118V70.9077C138 72.8288 138.169 74.7424 138.177 74.823L138.178 74.8351C138.198 75.0251 138.4 76.7119 139.232 77.5862C140.14 78.5798 141.287 78.7112 141.905 78.7819C142.003 78.7931 142.087 78.8026 142.144 78.8127L142.199 78.8204C144.031 78.9947 149.775 79.0806 150.019 79.084L150.026 79.0842L150.033 79.084C150.081 79.0839 154.873 79.0524 158.046 78.8217L158.088 78.8173C158.128 78.812 158.173 78.8072 158.222 78.8021C158.74 78.7471 159.817 78.6331 160.772 77.5824C161.567 76.7176 161.797 75.0361 161.821 74.8474L161.823 74.8228C161.831 74.7422 162 72.8288 162 70.9077V69.1118C162 67.1906 161.831 65.2772 161.823 65.1966ZM160.594 70.9077C160.594 72.6858 160.438 74.517 160.424 74.6851C160.364 75.1482 160.121 76.212 159.734 76.6334C159.136 77.2909 158.522 77.3561 158.074 77.4035C158.02 77.4092 157.969 77.4147 157.924 77.4203C154.855 77.6423 150.244 77.6763 150.032 77.6776C149.794 77.6741 144.134 77.5875 142.358 77.4225C142.267 77.4077 142.169 77.3964 142.065 77.3846C141.539 77.3244 140.82 77.242 140.266 76.6334L140.253 76.6194C139.872 76.2227 139.637 75.2278 139.577 74.6906C139.566 74.5635 139.406 72.7107 139.406 70.9077V69.1118C139.406 67.3356 139.561 65.5064 139.576 65.3348C139.648 64.7894 139.895 63.79 140.266 63.386C140.882 62.7086 141.532 62.6335 141.961 62.5839C142.002 62.5791 142.041 62.5747 142.076 62.5701C145.189 62.3471 149.833 62.314 150 62.3127C150.167 62.3138 154.809 62.3471 157.895 62.5701C157.933 62.5749 157.974 62.5797 158.019 62.5848C158.46 62.6351 159.128 62.7113 159.741 63.365L159.747 63.371C160.128 63.7678 160.363 64.78 160.423 65.3281C160.434 65.448 160.594 67.3049 160.594 69.1118V70.9077Z" fill="white"/>
</g>
</g>
<path d="M92.5943 181.288C91.5383 181.288 90.7223 181.04 90.1463 180.544C89.5703 180.032 89.2823 179.432 89.2823 178.744C89.2823 178.216 89.4343 177.776 89.7383 177.424C90.0423 177.072 90.4743 176.896 91.0343 176.896C91.5143 176.896 91.8983 177.04 92.1863 177.328C92.4903 177.616 92.6423 177.984 92.6423 178.432C92.6423 178.752 92.5783 179.024 92.4503 179.248C92.3223 179.472 92.1703 179.624 91.9943 179.704V179.8C92.1063 179.848 92.2263 179.88 92.3543 179.896C92.4823 179.912 92.6023 179.92 92.7143 179.92C92.9543 179.92 93.1783 179.888 93.3863 179.824C93.5943 179.76 93.7943 179.648 93.9863 179.488C94.1783 179.312 94.3623 179.08 94.5383 178.792C94.7303 178.504 94.9143 178.144 95.0903 177.712L95.2583 177.208L88.5383 165.688H87.2903V164.248H94.2743V165.688H92.2823L95.1863 170.92L96.6023 173.656H96.7223L97.7783 171.04L100.01 165.688H98.0663V164.248H103.154V165.688H101.882L96.6503 178.144C96.3943 178.736 96.1223 179.232 95.8343 179.632C95.5463 180.032 95.2343 180.36 94.8983 180.616C94.5783 180.856 94.2263 181.024 93.8423 181.12C93.4583 181.232 93.0423 181.288 92.5943 181.288ZM108.14 181.288C107.164 181.288 106.3 181.128 105.548 180.808C104.812 180.472 104.188 180.016 103.676 179.44C103.18 178.848 102.796 178.152 102.524 177.352C102.268 176.536 102.14 175.656 102.14 174.712C102.14 173.688 102.3 172.768 102.62 171.952C102.94 171.136 103.38 170.456 103.94 169.912C104.5 169.352 105.164 168.928 105.932 168.64C106.7 168.336 107.532 168.184 108.428 168.184C109.852 168.184 110.956 168.48 111.74 169.072C112.524 169.664 112.916 170.416 112.916 171.328C112.916 171.904 112.756 172.36 112.436 172.696C112.132 173.032 111.7 173.2 111.14 173.2C110.58 173.2 110.148 173.048 109.844 172.744C109.556 172.44 109.412 172.048 109.412 171.568C109.412 171.184 109.508 170.856 109.7 170.584C109.908 170.312 110.156 170.112 110.444 169.984V169.864C110.268 169.784 110.052 169.72 109.796 169.672C109.556 169.624 109.228 169.6 108.812 169.6C107.804 169.6 107.004 169.936 106.412 170.608C105.82 171.28 105.524 172.192 105.524 173.344V175.624C105.524 176.76 105.796 177.64 106.34 178.264C106.884 178.888 107.636 179.2 108.596 179.2C109.508 179.2 110.228 178.992 110.756 178.576C111.3 178.16 111.708 177.656 111.98 177.064L113.132 177.784C112.988 178.184 112.78 178.592 112.508 179.008C112.252 179.424 111.916 179.8 111.5 180.136C111.1 180.472 110.62 180.752 110.06 180.976C109.5 181.184 108.86 181.288 108.14 181.288ZM117.507 179.56H119.187V170.008H116.643V172.192H114.555V168.472H126.963V172.192H124.875V170.008H122.331V179.56H124.011V181H117.507V179.56ZM132.368 181.288C131.072 181.288 130.112 180.976 129.488 180.352C128.864 179.728 128.552 178.864 128.552 177.76C128.552 176.544 128.992 175.624 129.872 175C130.768 174.376 132.16 174.064 134.048 174.064H135.752V172.552C135.752 171.576 135.552 170.84 135.152 170.344C134.752 169.832 134.096 169.576 133.184 169.576C132.48 169.576 131.936 169.68 131.552 169.888V169.984C131.712 170.08 131.864 170.232 132.008 170.44C132.168 170.632 132.248 170.904 132.248 171.256C132.248 171.72 132.104 172.104 131.816 172.408C131.544 172.696 131.136 172.84 130.592 172.84C130.128 172.84 129.744 172.688 129.44 172.384C129.152 172.08 129.008 171.68 129.008 171.184C129.008 170.8 129.112 170.432 129.32 170.08C129.544 169.712 129.872 169.392 130.304 169.12C130.736 168.832 131.264 168.608 131.888 168.448C132.528 168.272 133.264 168.184 134.096 168.184C135.696 168.184 136.896 168.552 137.696 169.288C138.496 170.008 138.896 171.024 138.896 172.336V179.584H140.432V180.784C140.192 180.944 139.872 181.064 139.472 181.144C139.072 181.24 138.664 181.288 138.248 181.288C137.448 181.288 136.872 181.096 136.52 180.712C136.168 180.312 135.992 179.808 135.992 179.2V179.128H135.872C135.76 179.4 135.616 179.664 135.44 179.92C135.264 180.176 135.04 180.408 134.768 180.616C134.496 180.808 134.16 180.968 133.76 181.096C133.376 181.224 132.912 181.288 132.368 181.288ZM133.592 179.368C134.232 179.368 134.752 179.216 135.152 178.912C135.552 178.608 135.752 178.096 135.752 177.376V175.36H134.384C133.424 175.36 132.736 175.536 132.32 175.888C131.92 176.224 131.72 176.712 131.72 177.352V177.784C131.72 178.328 131.888 178.728 132.224 178.984C132.576 179.24 133.032 179.368 133.592 179.368ZM142.101 179.56H143.637V169.912H142.101V168.472H148.269V169.912H146.781V173.8H151.605V169.912H150.117V168.472H156.285V169.912H154.749V179.56H156.285V181H150.117V179.56H151.605V175.336H146.781V179.56H148.269V181H142.101V179.56ZM164.178 179.704C165.042 179.704 165.682 179.44 166.098 178.912C166.53 178.384 166.746 177.64 166.746 176.68V172.792C166.746 171.832 166.53 171.088 166.098 170.56C165.682 170.032 165.042 169.768 164.178 169.768C163.314 169.768 162.666 170.032 162.234 170.56C161.818 171.088 161.61 171.832 161.61 172.792V176.68C161.61 177.64 161.818 178.384 162.234 178.912C162.666 179.44 163.314 179.704 164.178 179.704ZM164.178 181.288C163.282 181.288 162.466 181.144 161.73 180.856C161.01 180.552 160.386 180.12 159.858 179.56C159.346 178.984 158.946 178.296 158.658 177.496C158.37 176.68 158.226 175.76 158.226 174.736C158.226 173.712 158.37 172.8 158.658 172C158.946 171.184 159.346 170.496 159.858 169.936C160.386 169.36 161.01 168.928 161.73 168.64C162.466 168.336 163.282 168.184 164.178 168.184C165.074 168.184 165.882 168.336 166.602 168.64C167.338 168.928 167.962 169.36 168.474 169.936C169.002 170.496 169.41 171.184 169.698 172C169.986 172.8 170.13 173.712 170.13 174.736C170.13 175.76 169.986 176.68 169.698 177.496C169.41 178.296 169.002 178.984 168.474 179.56C167.962 180.12 167.338 180.552 166.602 180.856C165.882 181.144 165.074 181.288 164.178 181.288ZM172.078 179.56H173.614V169.912H172.078V168.472H179.542C180.902 168.472 181.934 168.744 182.638 169.288C183.358 169.832 183.718 170.584 183.718 171.544C183.718 172.36 183.478 172.992 182.998 173.44C182.534 173.872 181.894 174.176 181.078 174.352V174.472C181.99 174.6 182.726 174.912 183.286 175.408C183.862 175.888 184.15 176.584 184.15 177.496C184.15 178.632 183.758 179.504 182.974 180.112C182.206 180.704 181.062 181 179.542 181H172.078V179.56ZM178.75 179.464C179.422 179.464 179.942 179.312 180.31 179.008C180.678 178.688 180.862 178.232 180.862 177.64V177.112C180.862 175.912 180.206 175.312 178.894 175.312H176.758V179.464H178.75ZM178.702 173.848C179.278 173.848 179.718 173.704 180.022 173.416C180.326 173.128 180.478 172.72 180.478 172.192V171.688C180.478 171.144 180.31 170.728 179.974 170.44C179.638 170.152 179.166 170.008 178.558 170.008H176.758V173.848H178.702ZM186.187 179.56H187.723V169.912H186.187V168.472H192.355V169.912H190.867V173.872H192.475L193.579 171.472C194.139 170.272 194.691 169.424 195.235 168.928C195.779 168.432 196.411 168.184 197.131 168.184C197.739 168.184 198.219 168.36 198.571 168.712C198.939 169.048 199.123 169.488 199.123 170.032C199.123 170.608 198.955 171.064 198.619 171.4C198.283 171.736 197.875 171.904 197.395 171.904C196.963 171.904 196.611 171.792 196.339 171.568C196.067 171.328 195.883 171 195.787 170.584H195.667C195.331 170.984 195.011 171.544 194.707 172.264L193.747 174.328C194.419 174.392 194.963 174.568 195.379 174.856C195.795 175.144 196.147 175.576 196.435 176.152L198.283 179.56H199.363V181H195.451L192.475 175.312H190.867V179.56H192.355V181H186.187V179.56ZM204.344 181.288C203.048 181.288 202.088 180.976 201.464 180.352C200.84 179.728 200.528 178.864 200.528 177.76C200.528 176.544 200.968 175.624 201.848 175C202.744 174.376 204.136 174.064 206.024 174.064H207.728V172.552C207.728 171.576 207.528 170.84 207.128 170.344C206.728 169.832 206.072 169.576 205.16 169.576C204.456 169.576 203.912 169.68 203.528 169.888V169.984C203.688 170.08 203.84 170.232 203.984 170.44C204.144 170.632 204.224 170.904 204.224 171.256C204.224 171.72 204.08 172.104 203.792 172.408C203.52 172.696 203.112 172.84 202.568 172.84C202.104 172.84 201.72 172.688 201.416 172.384C201.128 172.08 200.984 171.68 200.984 171.184C200.984 170.8 201.088 170.432 201.296 170.08C201.52 169.712 201.848 169.392 202.28 169.12C202.712 168.832 203.24 168.608 203.864 168.448C204.504 168.272 205.24 168.184 206.072 168.184C207.672 168.184 208.872 168.552 209.672 169.288C210.472 170.008 210.872 171.024 210.872 172.336V179.584H212.408V180.784C212.168 180.944 211.848 181.064 211.448 181.144C211.048 181.24 210.64 181.288 210.224 181.288C209.424 181.288 208.848 181.096 208.496 180.712C208.144 180.312 207.968 179.808 207.968 179.2V179.128H207.848C207.736 179.4 207.592 179.664 207.416 179.92C207.24 180.176 207.016 180.408 206.744 180.616C206.472 180.808 206.136 180.968 205.736 181.096C205.352 181.224 204.888 181.288 204.344 181.288ZM205.568 179.368C206.208 179.368 206.728 179.216 207.128 178.912C207.528 178.608 207.728 178.096 207.728 177.376V175.36H206.36C205.4 175.36 204.712 175.536 204.296 175.888C203.896 176.224 203.696 176.712 203.696 177.352V177.784C203.696 178.328 203.864 178.728 204.2 178.984C204.552 179.24 205.008 179.368 205.568 179.368Z" fill="#239680"/>
<path d="M31.8652 197.434V208H30.0586V197.434H31.8652ZM38.7988 197.434L33.7891 203.488H31.2598L30.9863 201.906H33.0566L36.6016 197.434H38.7988ZM36.8555 208L32.9688 203.215L34.1309 201.906L39.1504 208H36.8555ZM44.9512 208.195C44.2155 208.195 43.5482 208.072 42.9492 207.824C42.3568 207.57 41.8457 207.215 41.416 206.76C40.9928 206.304 40.6673 205.764 40.4395 205.139C40.2116 204.514 40.0977 203.83 40.0977 203.088V202.678C40.0977 201.818 40.2246 201.053 40.4785 200.383C40.7324 199.706 41.0775 199.133 41.5137 198.664C41.9499 198.195 42.4447 197.84 42.998 197.6C43.5514 197.359 44.1243 197.238 44.7168 197.238C45.472 197.238 46.123 197.368 46.6699 197.629C47.2233 197.889 47.6758 198.254 48.0273 198.723C48.3789 199.185 48.6393 199.732 48.8086 200.363C48.9779 200.988 49.0625 201.672 49.0625 202.414V203.225H41.1719V201.75H47.2559V201.613C47.2298 201.145 47.1322 200.689 46.9629 200.246C46.8001 199.803 46.5397 199.439 46.1816 199.152C45.8236 198.866 45.3353 198.723 44.7168 198.723C44.3066 198.723 43.929 198.811 43.584 198.986C43.2389 199.156 42.9427 199.41 42.6953 199.748C42.4479 200.087 42.2559 200.5 42.1191 200.988C41.9824 201.477 41.9141 202.04 41.9141 202.678V203.088C41.9141 203.589 41.9824 204.061 42.1191 204.504C42.2624 204.94 42.4674 205.324 42.7344 205.656C43.0078 205.988 43.3366 206.249 43.7207 206.438C44.1113 206.626 44.554 206.721 45.0488 206.721C45.6868 206.721 46.2272 206.59 46.6699 206.33C47.1126 206.07 47.5 205.721 47.832 205.285L48.9258 206.154C48.6979 206.499 48.4082 206.828 48.0566 207.141C47.7051 207.453 47.2721 207.707 46.7578 207.902C46.25 208.098 45.6478 208.195 44.9512 208.195ZM52.9785 199.465V212.062H51.1621V197.434H52.8223L52.9785 199.465ZM60.0977 202.629V202.834C60.0977 203.602 60.0065 204.315 59.8242 204.973C59.6419 205.624 59.375 206.19 59.0234 206.672C58.6784 207.154 58.252 207.528 57.7441 207.795C57.2363 208.062 56.6536 208.195 55.9961 208.195C55.3255 208.195 54.7331 208.085 54.2188 207.863C53.7044 207.642 53.2682 207.32 52.9102 206.896C52.5521 206.473 52.2656 205.965 52.0508 205.373C51.8424 204.781 51.6992 204.113 51.6211 203.371V202.277C51.6992 201.496 51.8457 200.796 52.0605 200.178C52.2754 199.559 52.5586 199.032 52.9102 198.596C53.2682 198.153 53.7012 197.818 54.209 197.59C54.7168 197.355 55.3027 197.238 55.9668 197.238C56.6309 197.238 57.2201 197.368 57.7344 197.629C58.2487 197.883 58.6816 198.247 59.0332 198.723C59.3848 199.198 59.6484 199.768 59.8242 200.432C60.0065 201.089 60.0977 201.822 60.0977 202.629ZM58.2812 202.834V202.629C58.2812 202.102 58.2259 201.607 58.1152 201.145C58.0046 200.676 57.832 200.266 57.5977 199.914C57.3698 199.556 57.0768 199.276 56.7188 199.074C56.3607 198.866 55.9342 198.762 55.4395 198.762C54.9837 198.762 54.5866 198.84 54.248 198.996C53.916 199.152 53.6328 199.364 53.3984 199.631C53.1641 199.891 52.972 200.191 52.8223 200.529C52.679 200.861 52.5716 201.206 52.5 201.564V204.094C52.6302 204.549 52.8125 204.979 53.0469 205.383C53.2812 205.78 53.5938 206.102 53.9844 206.35C54.375 206.59 54.8665 206.711 55.459 206.711C55.9473 206.711 56.3672 206.61 56.7188 206.408C57.0768 206.2 57.3698 205.917 57.5977 205.559C57.832 205.201 58.0046 204.79 58.1152 204.328C58.2259 203.859 58.2812 203.361 58.2812 202.834ZM68.6328 206.193V200.754C68.6328 200.337 68.5482 199.976 68.3789 199.67C68.2161 199.357 67.9688 199.117 67.6367 198.947C67.3047 198.778 66.8945 198.693 66.4062 198.693C65.9505 198.693 65.5501 198.771 65.2051 198.928C64.8665 199.084 64.5996 199.289 64.4043 199.543C64.2155 199.797 64.1211 200.07 64.1211 200.363H62.3145C62.3145 199.986 62.4121 199.611 62.6074 199.24C62.8027 198.869 63.0827 198.534 63.4473 198.234C63.8184 197.928 64.2611 197.688 64.7754 197.512C65.2962 197.329 65.8757 197.238 66.5137 197.238C67.2819 197.238 67.959 197.368 68.5449 197.629C69.1374 197.889 69.5996 198.283 69.9316 198.811C70.2702 199.331 70.4395 199.986 70.4395 200.773V205.695C70.4395 206.047 70.4688 206.421 70.5273 206.818C70.5924 207.215 70.6868 207.557 70.8105 207.844V208H68.9258C68.8346 207.792 68.763 207.515 68.7109 207.17C68.6589 206.818 68.6328 206.493 68.6328 206.193ZM68.9453 201.594L68.9648 202.863H67.1387C66.6243 202.863 66.1654 202.906 65.7617 202.99C65.3581 203.068 65.0195 203.189 64.7461 203.352C64.4727 203.514 64.2643 203.719 64.1211 203.967C63.9779 204.208 63.9062 204.491 63.9062 204.816C63.9062 205.148 63.9811 205.451 64.1309 205.725C64.2806 205.998 64.5052 206.216 64.8047 206.379C65.1107 206.535 65.485 206.613 65.9277 206.613C66.4811 206.613 66.9694 206.496 67.3926 206.262C67.8158 206.027 68.151 205.741 68.3984 205.402C68.6523 205.064 68.7891 204.735 68.8086 204.416L69.5801 205.285C69.5345 205.559 69.4108 205.861 69.209 206.193C69.0072 206.525 68.737 206.844 68.3984 207.15C68.0664 207.45 67.6693 207.701 67.207 207.902C66.7513 208.098 66.237 208.195 65.6641 208.195C64.9479 208.195 64.3197 208.055 63.7793 207.775C63.2454 207.495 62.8288 207.121 62.5293 206.652C62.2363 206.177 62.0898 205.646 62.0898 205.061C62.0898 204.494 62.2005 203.996 62.4219 203.566C62.6432 203.13 62.9622 202.769 63.3789 202.482C63.7956 202.189 64.2969 201.968 64.8828 201.818C65.4688 201.669 66.123 201.594 66.8457 201.594H68.9453ZM79.3555 205.598L82.9492 197.434H84.6875L79.9805 208H78.7305L74.043 197.434H75.7812L79.3555 205.598ZM75.2539 197.434V208H73.4473V197.434H75.2539ZM83.3984 208V197.434H85.2148V208H83.3984ZM90.0781 205.139L94.9512 197.434H96.7676V208H94.9512V200.295L90.0781 208H88.2812V197.434H90.0781V205.139ZM107.637 197.434V208H105.83V197.434H107.637ZM107.021 202.287V203.771C106.657 203.908 106.286 204.032 105.908 204.143C105.537 204.247 105.143 204.331 104.727 204.396C104.316 204.455 103.87 204.484 103.389 204.484C102.555 204.484 101.833 204.341 101.221 204.055C100.609 203.762 100.137 203.322 99.8047 202.736C99.4727 202.144 99.3066 201.398 99.3066 200.5V197.414H101.113V200.5C101.113 201.086 101.201 201.561 101.377 201.926C101.553 202.29 101.81 202.561 102.148 202.736C102.487 202.906 102.9 202.99 103.389 202.99C103.857 202.99 104.297 202.961 104.707 202.902C105.124 202.837 105.521 202.753 105.898 202.648C106.283 202.544 106.657 202.424 107.021 202.287ZM114.932 208.195C114.196 208.195 113.529 208.072 112.93 207.824C112.337 207.57 111.826 207.215 111.396 206.76C110.973 206.304 110.648 205.764 110.42 205.139C110.192 204.514 110.078 203.83 110.078 203.088V202.678C110.078 201.818 110.205 201.053 110.459 200.383C110.713 199.706 111.058 199.133 111.494 198.664C111.93 198.195 112.425 197.84 112.979 197.6C113.532 197.359 114.105 197.238 114.697 197.238C115.452 197.238 116.104 197.368 116.65 197.629C117.204 197.889 117.656 198.254 118.008 198.723C118.359 199.185 118.62 199.732 118.789 200.363C118.958 200.988 119.043 201.672 119.043 202.414V203.225H111.152V201.75H117.236V201.613C117.21 201.145 117.113 200.689 116.943 200.246C116.781 199.803 116.52 199.439 116.162 199.152C115.804 198.866 115.316 198.723 114.697 198.723C114.287 198.723 113.91 198.811 113.564 198.986C113.219 199.156 112.923 199.41 112.676 199.748C112.428 200.087 112.236 200.5 112.1 200.988C111.963 201.477 111.895 202.04 111.895 202.678V203.088C111.895 203.589 111.963 204.061 112.1 204.504C112.243 204.94 112.448 205.324 112.715 205.656C112.988 205.988 113.317 206.249 113.701 206.438C114.092 206.626 114.535 206.721 115.029 206.721C115.667 206.721 116.208 206.59 116.65 206.33C117.093 206.07 117.48 205.721 117.812 205.285L118.906 206.154C118.678 206.499 118.389 206.828 118.037 207.141C117.686 207.453 117.253 207.707 116.738 207.902C116.23 208.098 115.628 208.195 114.932 208.195ZM125.381 206.711C125.811 206.711 126.208 206.623 126.572 206.447C126.937 206.271 127.236 206.031 127.471 205.725C127.705 205.412 127.839 205.057 127.871 204.66H129.59C129.557 205.285 129.346 205.868 128.955 206.408C128.571 206.942 128.066 207.375 127.441 207.707C126.816 208.033 126.13 208.195 125.381 208.195C124.587 208.195 123.893 208.055 123.301 207.775C122.715 207.495 122.227 207.111 121.836 206.623C121.452 206.135 121.162 205.575 120.967 204.943C120.778 204.305 120.684 203.632 120.684 202.922V202.512C120.684 201.802 120.778 201.132 120.967 200.5C121.162 199.862 121.452 199.299 121.836 198.811C122.227 198.322 122.715 197.938 123.301 197.658C123.893 197.378 124.587 197.238 125.381 197.238C126.208 197.238 126.93 197.408 127.549 197.746C128.167 198.078 128.652 198.534 129.004 199.113C129.362 199.686 129.557 200.337 129.59 201.066H127.871C127.839 200.63 127.715 200.236 127.5 199.885C127.292 199.533 127.005 199.253 126.641 199.045C126.283 198.83 125.863 198.723 125.381 198.723C124.827 198.723 124.362 198.833 123.984 199.055C123.613 199.27 123.317 199.562 123.096 199.934C122.881 200.298 122.725 200.705 122.627 201.154C122.536 201.597 122.49 202.049 122.49 202.512V202.922C122.49 203.384 122.536 203.84 122.627 204.289C122.718 204.738 122.871 205.145 123.086 205.51C123.307 205.874 123.604 206.167 123.975 206.389C124.352 206.604 124.821 206.711 125.381 206.711ZM133.584 197.434V208H131.777V197.434H133.584ZM140.518 197.434L135.508 203.488H132.979L132.705 201.906H134.775L138.32 197.434H140.518ZM138.574 208L134.688 203.215L135.85 201.906L140.869 208H138.574ZM144.395 205.139L149.268 197.434H151.084V208H149.268V200.295L144.395 208H142.598V197.434H144.395V205.139ZM155.205 197.434L157.52 201.281L159.863 197.434H161.982L158.525 202.648L162.09 208H160L157.559 204.035L155.117 208H153.018L156.572 202.648L153.125 197.434H155.205ZM170.82 205.139L175.693 197.434H177.51V208H175.693V200.295L170.82 208H169.023V197.434H170.82V205.139ZM186.484 205.598L190.078 197.434H191.816L187.109 208H185.859L181.172 197.434H182.91L186.484 205.598ZM182.383 197.434V208H180.576V197.434H182.383ZM190.527 208V197.434H192.344V208H190.527ZM202.295 197.434V198.928H196.953V197.434H202.295ZM197.217 197.434V208H195.41V197.434H197.217ZM203.896 197.434V208H202.08V197.434H203.896ZM213.857 197.434V198.928H208.75V197.434H213.857ZM215.449 197.434V208H213.643V197.434H215.449ZM208.311 197.434H210.127L209.854 202.531C209.808 203.319 209.733 204.016 209.629 204.621C209.531 205.22 209.395 205.734 209.219 206.164C209.049 206.594 208.835 206.945 208.574 207.219C208.32 207.486 208.014 207.684 207.656 207.814C207.298 207.938 206.885 208 206.416 208H205.85V206.408L206.24 206.379C206.52 206.359 206.758 206.294 206.953 206.184C207.155 206.073 207.324 205.91 207.461 205.695C207.598 205.474 207.708 205.191 207.793 204.846C207.884 204.501 207.952 204.09 207.998 203.615C208.05 203.14 208.089 202.587 208.115 201.955L208.311 197.434ZM224.59 206.193V200.754C224.59 200.337 224.505 199.976 224.336 199.67C224.173 199.357 223.926 199.117 223.594 198.947C223.262 198.778 222.852 198.693 222.363 198.693C221.908 198.693 221.507 198.771 221.162 198.928C220.824 199.084 220.557 199.289 220.361 199.543C220.173 199.797 220.078 200.07 220.078 200.363H218.271C218.271 199.986 218.369 199.611 218.564 199.24C218.76 198.869 219.04 198.534 219.404 198.234C219.775 197.928 220.218 197.688 220.732 197.512C221.253 197.329 221.833 197.238 222.471 197.238C223.239 197.238 223.916 197.368 224.502 197.629C225.094 197.889 225.557 198.283 225.889 198.811C226.227 199.331 226.396 199.986 226.396 200.773V205.695C226.396 206.047 226.426 206.421 226.484 206.818C226.549 207.215 226.644 207.557 226.768 207.844V208H224.883C224.792 207.792 224.72 207.515 224.668 207.17C224.616 206.818 224.59 206.493 224.59 206.193ZM224.902 201.594L224.922 202.863H223.096C222.581 202.863 222.122 202.906 221.719 202.99C221.315 203.068 220.977 203.189 220.703 203.352C220.43 203.514 220.221 203.719 220.078 203.967C219.935 204.208 219.863 204.491 219.863 204.816C219.863 205.148 219.938 205.451 220.088 205.725C220.238 205.998 220.462 206.216 220.762 206.379C221.068 206.535 221.442 206.613 221.885 206.613C222.438 206.613 222.926 206.496 223.35 206.262C223.773 206.027 224.108 205.741 224.355 205.402C224.609 205.064 224.746 204.735 224.766 204.416L225.537 205.285C225.492 205.559 225.368 205.861 225.166 206.193C224.964 206.525 224.694 206.844 224.355 207.15C224.023 207.45 223.626 207.701 223.164 207.902C222.708 208.098 222.194 208.195 221.621 208.195C220.905 208.195 220.277 208.055 219.736 207.775C219.202 207.495 218.786 207.121 218.486 206.652C218.193 206.177 218.047 205.646 218.047 205.061C218.047 204.494 218.158 203.996 218.379 203.566C218.6 203.13 218.919 202.769 219.336 202.482C219.753 202.189 220.254 201.968 220.84 201.818C221.426 201.669 222.08 201.594 222.803 201.594H224.902ZM236.406 202.014V203.479H230.82V202.014H236.406ZM231.201 197.434V208H229.395V197.434H231.201ZM237.871 197.434V208H236.055V197.434H237.871ZM245.088 197.434V208H243.271V197.434H245.088ZM248.633 197.434V198.898H239.795V197.434H248.633ZM249.521 202.834V202.609C249.521 201.848 249.632 201.141 249.854 200.49C250.075 199.833 250.394 199.263 250.811 198.781C251.227 198.293 251.732 197.915 252.324 197.648C252.917 197.375 253.581 197.238 254.316 197.238C255.059 197.238 255.726 197.375 256.318 197.648C256.917 197.915 257.425 198.293 257.842 198.781C258.265 199.263 258.587 199.833 258.809 200.49C259.03 201.141 259.141 201.848 259.141 202.609V202.834C259.141 203.596 259.03 204.302 258.809 204.953C258.587 205.604 258.265 206.174 257.842 206.662C257.425 207.144 256.921 207.521 256.328 207.795C255.742 208.062 255.078 208.195 254.336 208.195C253.594 208.195 252.926 208.062 252.334 207.795C251.742 207.521 251.234 207.144 250.811 206.662C250.394 206.174 250.075 205.604 249.854 204.953C249.632 204.302 249.521 203.596 249.521 202.834ZM251.328 202.609V202.834C251.328 203.361 251.39 203.859 251.514 204.328C251.637 204.79 251.823 205.201 252.07 205.559C252.324 205.917 252.64 206.2 253.018 206.408C253.395 206.61 253.835 206.711 254.336 206.711C254.831 206.711 255.264 206.61 255.635 206.408C256.012 206.2 256.325 205.917 256.572 205.559C256.82 205.201 257.005 204.79 257.129 204.328C257.259 203.859 257.324 203.361 257.324 202.834V202.609C257.324 202.089 257.259 201.597 257.129 201.135C257.005 200.666 256.816 200.253 256.562 199.895C256.315 199.53 256.003 199.243 255.625 199.035C255.254 198.827 254.818 198.723 254.316 198.723C253.822 198.723 253.385 198.827 253.008 199.035C252.637 199.243 252.324 199.53 252.07 199.895C251.823 200.253 251.637 200.666 251.514 201.135C251.39 201.597 251.328 202.089 251.328 202.609ZM266.367 203.352H262.9L262.881 201.906H265.713C266.273 201.906 266.738 201.851 267.109 201.74C267.487 201.63 267.77 201.464 267.959 201.242C268.148 201.021 268.242 200.747 268.242 200.422C268.242 200.168 268.187 199.947 268.076 199.758C267.972 199.562 267.812 199.403 267.598 199.279C267.383 199.149 267.116 199.055 266.797 198.996C266.484 198.931 266.117 198.898 265.693 198.898H263.379V208H261.572V197.434H265.693C266.364 197.434 266.966 197.492 267.5 197.609C268.04 197.727 268.499 197.906 268.877 198.146C269.261 198.381 269.554 198.68 269.756 199.045C269.958 199.41 270.059 199.839 270.059 200.334C270.059 200.653 269.993 200.956 269.863 201.242C269.733 201.529 269.541 201.783 269.287 202.004C269.033 202.225 268.721 202.408 268.35 202.551C267.979 202.688 267.552 202.775 267.07 202.814L266.367 203.352ZM266.367 208H262.246L263.145 206.535H266.367C266.868 206.535 267.285 206.473 267.617 206.35C267.949 206.219 268.197 206.037 268.359 205.803C268.529 205.562 268.613 205.275 268.613 204.943C268.613 204.611 268.529 204.328 268.359 204.094C268.197 203.853 267.949 203.671 267.617 203.547C267.285 203.417 266.868 203.352 266.367 203.352H263.623L263.643 201.906H267.07L267.725 202.453C268.304 202.499 268.796 202.642 269.199 202.883C269.603 203.124 269.909 203.43 270.117 203.801C270.326 204.165 270.43 204.562 270.43 204.992C270.43 205.487 270.335 205.923 270.146 206.301C269.964 206.678 269.697 206.994 269.346 207.248C268.994 207.495 268.568 207.684 268.066 207.814C267.565 207.938 266.999 208 266.367 208Z" fill="#3F514E"/>
<defs>
<filter id="filter0_d_576_1741" x="102" y="30" width="96" height="96" filterUnits="userSpaceOnUse" color-interpolation-filters="sRGB">
<feFlood flood-opacity="0" result="BackgroundImageFix"/>
<feColorMatrix in="SourceAlpha" type="matrix" values="0 0 0 0 0 0 0 0 0 0 0 0 0 0 0 0 0 0 127 0" result="hardAlpha"/>
<feOffset dy="8"/>
<feGaussianBlur stdDeviation="8"/>
<feComposite in2="hardAlpha" operator="out"/>
<feColorMatrix type="matrix" values="0 0 0 0 0.705882 0 0 0 0 0.87451 0 0 0 0 0.843137 0 0 0 1 0"/>
<feBlend mode="normal" in2="BackgroundImageFix" result="effect1_dropShadow_576_1741"/>
<feBlend mode="normal" in="SourceGraphic" in2="effect1_dropShadow_576_1741" result="shape"/>
</filter>
<linearGradient id="paint0_linear_576_1741" x1="150" y1="38" x2="150" y2="102" gradientUnits="userSpaceOnUse">
<stop stop-color="#56B6A4"/>
<stop offset="1" stop-color="#208973"/>
</linearGradient>
<clipPath id="clip0_576_1741">
<rect width="24" height="24" fill="white" transform="translate(138 58)"/>
</clipPath>
</defs>
</svg>
