<svg width="114" height="114" viewBox="0 0 114 114" fill="none" xmlns="http://www.w3.org/2000/svg">
<g filter="url(#filter0_f_576_1710)">
<path d="M87 57C87 49.6833 84.326 42.6188 79.4813 37.1358C74.6366 31.6528 67.9551 28.1293 60.6941 27.2284C53.433 26.3274 46.093 28.1111 40.0552 32.2438C34.0174 36.3765 29.698 42.5733 27.9098 49.6681C26.1216 56.763 26.9879 64.2667 30.3457 70.7675C33.7034 77.2683 39.3212 82.3178 46.1418 84.966C52.9625 87.6143 60.5158 87.6786 67.3806 85.1468C74.2453 82.6151 79.9482 77.6619 83.4162 71.2192" stroke="#239680" stroke-width="4"/>
</g>
<g filter="url(#filter1_f_576_1710)">
<path d="M87 57C87 49.6833 84.326 42.6188 79.4813 37.1358C74.6366 31.6528 67.9551 28.1293 60.6941 27.2284C53.433 26.3274 46.093 28.1111 40.0552 32.2438C34.0174 36.3765 29.698 42.5733 27.9098 49.6681C26.1216 56.763 26.9879 64.2667 30.3457 70.7675C33.7034 77.2683 39.3212 82.3178 46.1418 84.966C52.9625 87.6143 60.5158 87.6786 67.3806 85.1468C74.2453 82.6151 79.9482 77.6619 83.4162 71.2192" stroke="#239680" stroke-width="4"/>
</g>
<g filter="url(#filter2_f_576_1710)">
<path d="M87 57C87 49.6833 84.326 42.6188 79.4813 37.1358C74.6366 31.6528 67.9551 28.1293 60.6941 27.2284C53.433 26.3274 46.093 28.1111 40.0552 32.2438C34.0174 36.3765 29.698 42.5733 27.9098 49.6681C26.1216 56.763 26.9879 64.2667 30.3457 70.7675C33.7034 77.2683 39.3212 82.3178 46.1418 84.966C52.9625 87.6143 60.5158 87.6786 67.3806 85.1468C74.2453 82.6151 79.9482 77.6619 83.4162 71.2192" stroke="#239680" stroke-width="4"/>
</g>
<g filter="url(#filter3_f_576_1710)">
<path d="M87 57C87 49.6833 84.326 42.6188 79.4813 37.1358C74.6366 31.6528 67.9551 28.1293 60.6941 27.2284C53.433 26.3274 46.093 28.1111 40.0552 32.2438C34.0174 36.3765 29.698 42.5733 27.9098 49.6681C26.1216 56.763 26.9879 64.2667 30.3457 70.7675C33.7034 77.2683 39.3212 82.3178 46.1418 84.966C52.9625 87.6143 60.5158 87.6786 67.3806 85.1468C74.2453 82.6151 79.9482 77.6619 83.4162 71.2192" stroke="#239680" stroke-width="4"/>
</g>
<g filter="url(#filter4_f_576_1710)">
<path d="M87 57C87 49.6833 84.326 42.6188 79.4813 37.1358C74.6366 31.6528 67.9551 28.1293 60.6941 27.2284C53.433 26.3274 46.093 28.1111 40.0552 32.2438C34.0174 36.3765 29.698 42.5733 27.9098 49.6681C26.1216 56.763 26.9879 64.2667 30.3457 70.7675C33.7034 77.2683 39.3212 82.3178 46.1418 84.966C52.9625 87.6143 60.5158 87.6786 67.3806 85.1468C74.2453 82.6151 79.9482 77.6619 83.4162 71.2192" stroke="#239680" stroke-width="4"/>
</g>
<path d="M87 57C87 49.6833 84.326 42.6188 79.4813 37.1358C74.6366 31.6528 67.9551 28.1293 60.6941 27.2284C53.433 26.3274 46.093 28.1111 40.0552 32.2438C34.0174 36.3765 29.698 42.5733 27.9098 49.6681C26.1216 56.763 26.9879 64.2667 30.3457 70.7675C33.7034 77.2683 39.3212 82.3178 46.1418 84.966C52.9625 87.6143 60.5158 87.6786 67.3806 85.1468C74.2453 82.6151 79.9482 77.6619 83.4162 71.2192" stroke="#E1F2EF" stroke-width="4" stroke-linecap="round"/>
<defs>
<filter id="filter0_f_576_1710" x="20" y="20" width="73.9999" height="74" filterUnits="userSpaceOnUse" color-interpolation-filters="sRGB">
<feFlood flood-opacity="0" result="BackgroundImageFix"/>
<feBlend mode="normal" in="SourceGraphic" in2="BackgroundImageFix" result="shape"/>
<feGaussianBlur stdDeviation="2.5" result="effect1_foregroundBlur_576_1710"/>
</filter>
<filter id="filter1_f_576_1710" x="15" y="15" width="83.9999" height="84" filterUnits="userSpaceOnUse" color-interpolation-filters="sRGB">
<feFlood flood-opacity="0" result="BackgroundImageFix"/>
<feBlend mode="normal" in="SourceGraphic" in2="BackgroundImageFix" result="shape"/>
<feGaussianBlur stdDeviation="5" result="effect1_foregroundBlur_576_1710"/>
</filter>
<filter id="filter2_f_576_1710" x="10" y="10" width="93.9999" height="94" filterUnits="userSpaceOnUse" color-interpolation-filters="sRGB">
<feFlood flood-opacity="0" result="BackgroundImageFix"/>
<feBlend mode="normal" in="SourceGraphic" in2="BackgroundImageFix" result="shape"/>
<feGaussianBlur stdDeviation="7.5" result="effect1_foregroundBlur_576_1710"/>
</filter>
<filter id="filter3_f_576_1710" x="5" y="5" width="104" height="104" filterUnits="userSpaceOnUse" color-interpolation-filters="sRGB">
<feFlood flood-opacity="0" result="BackgroundImageFix"/>
<feBlend mode="normal" in="SourceGraphic" in2="BackgroundImageFix" result="shape"/>
<feGaussianBlur stdDeviation="10" result="effect1_foregroundBlur_576_1710"/>
</filter>
<filter id="filter4_f_576_1710" x="0" y="0" width="114" height="114" filterUnits="userSpaceOnUse" color-interpolation-filters="sRGB">
<feFlood flood-opacity="0" result="BackgroundImageFix"/>
<feBlend mode="normal" in="SourceGraphic" in2="BackgroundImageFix" result="shape"/>
<feGaussianBlur stdDeviation="12.5" result="effect1_foregroundBlur_576_1710"/>
</filter>
</defs>
</svg>
