<svg width="23" height="22" viewBox="0 0 23 22" fill="none" xmlns="http://www.w3.org/2000/svg">
<path d="M18.0306 10.1924V9.6267C18.0306 9.54205 18.0306 9.49973 18.0301 9.46393C17.9913 6.75855 15.8076 4.57479 13.1022 4.53605C13.0664 4.53553 13.024 4.53553 12.9394 4.53553H12.3737M21.5662 10.8995V9.90954C21.5662 9.0649 21.5662 8.64258 21.5343 8.28659C21.1892 4.43191 18.1343 1.37699 14.2796 1.03187C13.9236 1 13.5013 0.999999 12.6567 1L11.6667 1M8.44447 8.22339C7.99123 9.26317 8.22062 10.4744 9.02268 11.2765L11.4195 13.6733C12.2215 14.4753 13.4328 14.7047 14.4726 14.2515C15.5123 13.7982 16.7236 14.0276 17.5256 14.8297L18.9838 16.2879C19.0545 16.3585 19.0898 16.3938 19.1184 16.425C19.8215 17.1901 19.8215 18.3662 19.1184 19.1314C19.0898 19.1625 19.0545 19.1978 18.9838 19.2685L18.0975 20.1548C17.3757 20.8766 16.3352 21.1796 15.3387 20.9582C8.54911 19.4494 3.24658 14.1468 1.73778 7.35725C1.51634 6.36079 1.81934 5.32026 2.54114 4.59846L3.42748 3.71212C3.49813 3.64147 3.53345 3.60615 3.56457 3.57756C4.32972 2.87448 5.50583 2.87448 6.27099 3.57756C6.30211 3.60615 6.33743 3.64147 6.40808 3.71212L7.86627 5.17032C8.66833 5.97237 8.89771 7.18361 8.44447 8.22339Z" stroke="#84CBBE" stroke-width="1.5" stroke-linecap="round"/>
</svg>
