<svg width="24" height="24" viewBox="0 0 24 24" fill="none" xmlns="http://www.w3.org/2000/svg">
<path d="M12.04 1C5.94858 1 1 5.94858 1 12.04C1 13.998 1.53697 15.8252 2.4325 17.4203L1.01781 22.4706C0.995212 22.5514 0.99419 22.6368 1.01485 22.7181C1.03551 22.7994 1.07713 22.8739 1.13556 22.9342C1.19399 22.9944 1.26719 23.0383 1.34786 23.0614C1.42853 23.0845 1.51385 23.0861 1.59531 23.0659L6.86125 21.7609C8.40862 22.587 10.1644 23.08 12.04 23.08C18.1314 23.08 23.08 18.1314 23.08 12.04C23.08 5.94858 18.1314 1 12.04 1ZM12.04 1.96C17.6126 1.96 22.12 6.46742 22.12 12.04C22.12 17.6126 17.6126 22.12 12.04 22.12C10.2535 22.12 8.58022 21.6542 7.12562 20.8403C7.01924 20.7809 6.89422 20.7641 6.77594 20.7934L2.16437 21.9362L3.40094 17.5244C3.41863 17.462 3.42352 17.3967 3.4153 17.3325C3.40708 17.2682 3.38593 17.2062 3.35312 17.1503C2.46913 15.6513 1.96 13.9073 1.96 12.04C1.96 6.46742 6.46742 1.96 12.04 1.96ZM8.02844 6.28C7.72074 6.28 7.2813 6.39447 6.92031 6.78344C6.70349 7.01706 5.8 7.89737 5.8 9.445C5.8 11.0585 6.91907 12.4508 7.05437 12.6297H7.05531V12.6306C7.04248 12.6138 7.22705 12.8811 7.47344 13.2016C7.71982 13.5221 8.06435 13.943 8.49719 14.3987C9.36285 15.3102 10.58 16.3636 12.0906 17.0078C12.7863 17.3041 13.3351 17.4829 13.7509 17.6134C14.5215 17.8554 15.2234 17.8186 15.7506 17.7409C16.1453 17.6828 16.5793 17.4933 17.0087 17.2216C17.4382 16.9498 17.8591 16.6119 18.0447 16.0984C18.1777 15.7304 18.2452 15.3902 18.2697 15.1103C18.2819 14.9704 18.2835 14.8468 18.2744 14.7325C18.2653 14.6182 18.275 14.5306 18.1684 14.3556C17.945 13.9887 17.6919 13.9791 17.4278 13.8484C17.2811 13.7758 16.8634 13.5718 16.4444 13.3722C16.0259 13.1728 15.6635 12.9961 15.4403 12.9166C15.2993 12.8658 15.1271 12.7928 14.8787 12.8209C14.6304 12.8491 14.385 13.0283 14.2422 13.24C14.1068 13.4407 13.5618 14.084 13.3956 14.2731C13.3934 14.2718 13.4078 14.2784 13.3422 14.2459C13.1367 14.1442 12.8854 14.0578 12.5134 13.8616C12.1415 13.6654 11.6763 13.3757 11.1672 12.9269V12.9259C10.4095 12.2589 9.87869 11.4213 9.71125 11.14C9.72253 11.1266 9.70991 11.1428 9.73375 11.1194L9.73469 11.1184C9.90581 10.9499 10.0575 10.7486 10.1856 10.6009C10.3673 10.3916 10.4475 10.2071 10.5344 10.0347C10.7075 9.69109 10.6111 9.313 10.5109 9.11406V9.11312C10.5179 9.12689 10.4568 8.99207 10.3909 8.83656C10.3249 8.68061 10.2408 8.47842 10.1509 8.26281C9.97122 7.8316 9.77057 7.34796 9.65125 7.06469V7.06375C9.51068 6.73009 9.32051 6.48972 9.07187 6.37375C8.82324 6.25778 8.60357 6.29075 8.59469 6.29031H8.59375C8.41632 6.28213 8.22162 6.28 8.02844 6.28ZM8.02844 7.24C8.2135 7.24 8.39594 7.24226 8.54875 7.24937C8.70595 7.25721 8.69617 7.25785 8.66594 7.24375C8.63522 7.22943 8.6769 7.22478 8.76625 7.43687C8.88309 7.71424 9.08472 8.19964 9.265 8.63219C9.35514 8.84846 9.4395 9.05143 9.50688 9.21062C9.57425 9.36982 9.61076 9.4587 9.65312 9.54344V9.54437L9.65406 9.54531C9.6956 9.62727 9.69193 9.5748 9.6775 9.60344C9.57621 9.80447 9.56246 9.85384 9.46 9.97188C9.30399 10.1516 9.14486 10.352 9.06063 10.435C8.98693 10.5074 8.85396 10.6202 8.77094 10.8409C8.68779 11.062 8.72659 11.3654 8.86 11.5919C9.03761 11.8934 9.62291 12.8461 10.5325 13.6469C11.1053 14.1518 11.639 14.486 12.0653 14.7109C12.4916 14.9358 12.8389 15.0672 12.9166 15.1056C13.1011 15.1969 13.3027 15.2678 13.5372 15.2397C13.7717 15.2115 13.9738 15.0693 14.1025 14.9237L14.1034 14.9228C14.2747 14.7286 14.7836 14.1475 15.0278 13.7894C15.0382 13.793 15.0348 13.7902 15.1159 13.8194V13.8203H15.1169C15.1539 13.8335 15.6181 14.0412 16.0319 14.2384C16.4457 14.4356 16.8657 14.6406 17.0022 14.7081C17.1991 14.8056 17.2922 14.8691 17.3162 14.8694C17.3179 14.9116 17.3195 14.9574 17.3134 15.0269C17.2966 15.2197 17.2451 15.4865 17.1419 15.7722C17.0913 15.912 16.828 16.2005 16.4959 16.4106C16.1639 16.6208 15.7597 16.7692 15.61 16.7912C15.1599 16.8576 14.6256 16.8818 14.0387 16.6975C13.6318 16.5698 13.1245 16.4044 12.4675 16.1247C11.1351 15.5565 10.0027 14.5895 9.19375 13.7378C8.78928 13.312 8.46523 12.9155 8.23469 12.6156C8.00458 12.3163 7.90409 12.1605 7.82031 12.0503L7.81938 12.0494C7.67066 11.8527 6.76 10.586 6.76 9.445C6.76 8.23743 7.32088 7.76389 7.62437 7.43687C7.78371 7.2652 7.9579 7.24 8.02844 7.24Z" fill="white"/>
</svg>
