<svg width="19" height="23" viewBox="0 0 19 23" fill="none" xmlns="http://www.w3.org/2000/svg">
<path d="M12.1141 19.7005L11.5239 19.2377L12.1141 19.7005ZM6.55252 19.7005L5.96235 20.1633L6.55252 19.7005ZM9.33331 22.0055V21.2555V22.0055ZM16.5833 9.6087C16.5833 10.8352 15.9437 12.4764 14.9371 14.256C13.947 16.0063 12.6675 17.7794 11.5239 19.2377L12.7043 20.1633C13.8704 18.6762 15.2005 16.837 16.2427 14.9945C17.2682 13.1814 18.0833 11.2494 18.0833 9.6087H16.5833ZM7.14269 19.2377C5.99909 17.7794 4.71959 16.0063 3.72956 14.256C2.72293 12.4764 2.08331 10.8352 2.08331 9.6087H0.583313C0.583313 11.2494 1.39842 13.1814 2.42395 14.9945C3.46609 16.837 4.79619 18.6762 5.96235 20.1633L7.14269 19.2377ZM2.08331 9.6087C2.08331 5.21571 5.38009 1.75 9.33331 1.75V0.25C4.44998 0.25 0.583313 4.49277 0.583313 9.6087H2.08331ZM9.33331 1.75C13.2865 1.75 16.5833 5.21571 16.5833 9.6087H18.0833C18.0833 4.49277 14.2167 0.25 9.33331 0.25V1.75ZM11.5239 19.2377C10.905 20.027 10.4974 20.5426 10.1325 20.8741C9.79966 21.1764 9.57749 21.2555 9.33331 21.2555V22.7555C10.0624 22.7555 10.6281 22.4504 11.1411 21.9844C11.622 21.5476 12.1182 20.9107 12.7043 20.1633L11.5239 19.2377ZM5.96235 20.1633C6.54842 20.9107 7.04467 21.5476 7.52556 21.9844C8.03855 22.4504 8.60426 22.7555 9.33331 22.7555V21.2555C9.08914 21.2555 8.86696 21.1764 8.53413 20.8741C8.16919 20.5426 7.76166 20.027 7.14269 19.2377L5.96235 20.1633ZM5.58331 10C5.58331 12.0711 7.26225 13.75 9.33331 13.75V12.25C8.09067 12.25 7.08331 11.2426 7.08331 10H5.58331ZM9.33331 13.75C11.4044 13.75 13.0833 12.0711 13.0833 10H11.5833C11.5833 11.2426 10.576 12.25 9.33331 12.25V13.75ZM13.0833 10C13.0833 7.92893 11.4044 6.25 9.33331 6.25V7.75C10.576 7.75 11.5833 8.75736 11.5833 10H13.0833ZM9.33331 6.25C7.26225 6.25 5.58331 7.92893 5.58331 10H7.08331C7.08331 8.75736 8.09067 7.75 9.33331 7.75V6.25Z" fill="#84CBBE"/>
</svg>
