<svg width="86" height="144" viewBox="0 0 86 144" fill="none" xmlns="http://www.w3.org/2000/svg">
<path d="M84.7799 136.654C73.9435 139.327 63.0402 142.22 52.007 143.973C51.7359 144.035 51.4512 143.99 51.2124 143.848C50.9735 143.706 50.7989 143.478 50.725 143.211C50.651 142.944 50.6835 142.659 50.8157 142.416C50.9478 142.172 51.1693 141.989 51.4341 141.904C58.5755 139.616 65.8834 137.781 73.1964 136.011C46.3787 130.679 22.3536 113.505 9.71392 89.0981C-4.67234 61.3254 -3.10373 26.2252 14.5838 0.326767C14.6844 0.172089 14.8411 0.062027 15.0212 0.0194092C15.2013 -0.0232086 15.3909 0.00492859 15.5507 0.0979614C15.7105 0.19101 15.8281 0.341797 15.8791 0.518951C15.93 0.696091 15.9104 0.885986 15.8243 1.0491C0.90928 27.2754 -1.60957 60.3267 12.5609 87.4411C19.2154 99.9095 28.7704 110.612 40.4278 118.654C52.0851 126.696 65.5064 131.845 79.5706 133.67C79.9811 133.719 80.3616 133.909 80.6457 134.208L81.1985 134.074C74.9669 127.129 69.3208 119.686 64.3173 111.818C63.1551 109.99 66.0677 108.307 67.2198 110.126C72.5851 118.569 78.7097 126.509 85.5181 133.849C85.7225 134.058 85.8691 134.316 85.9438 134.598C86.0185 134.88 86.0187 135.177 85.9445 135.459C85.8702 135.741 85.724 135.999 85.5199 136.209C85.3159 136.418 85.061 136.571 84.7799 136.654Z" fill="#EA366E"/>
</svg>
