<svg width="181" height="63" viewBox="0 0 181 63" fill="none" xmlns="http://www.w3.org/2000/svg">
<path d="M180.798 30.1476C178.652 40.5483 176.712 51.1402 173.478 61.1239C173.419 61.3811 173.238 61.5826 172.974 61.6864C172.709 61.7901 172.381 61.7882 172.057 61.6809C171.734 61.5736 171.441 61.3693 171.238 61.1106C171.036 60.8518 170.94 60.5587 170.972 60.2923C171.817 53.1094 173.229 46.075 174.714 39.0773C156.469 57.3497 126.704 65.9707 94.4031 60.8988C57.647 55.1305 20.3795 31.9292 0.570382 1.49354C0.449758 1.3158 0.403469 1.12081 0.441099 0.949092C0.47873 0.777373 0.597398 0.642155 0.772435 0.571583C0.947473 0.501011 1.1654 0.500509 1.38088 0.570181C1.59635 0.639854 1.79278 0.774333 1.92932 0.945651C23.3829 29.3527 57.9904 52.039 93.9336 57.5697C110.526 60.0015 126.556 58.9928 140.684 54.628C154.812 50.2632 166.628 42.669 175.145 32.4796C175.389 32.1792 175.772 31.9916 176.228 31.9495L176.339 31.4202C165.923 32.1002 155.239 31.9965 144.395 31.1101C141.876 30.9041 141.408 27.5056 143.914 27.7143C155.549 28.6687 166.993 28.6973 178.105 27.7997C178.426 27.7657 178.774 27.8089 179.114 27.925C179.454 28.0412 179.775 28.2263 180.046 28.4625C180.317 28.6987 180.529 28.978 180.66 29.2732C180.792 29.5684 180.84 29.8697 180.798 30.1476Z" fill="#EA366E"/>
</svg>
