<svg width="22" height="24" viewBox="0 0 22 24" fill="none" xmlns="http://www.w3.org/2000/svg">
<path d="M13.2549 0H8.68349C3.89539 0 0 3.89475 0 8.6817V12.7996C0 16.3645 2.19064 19.5684 5.4846 20.8734V23.5429C5.4846 23.7237 5.59104 23.8875 5.7564 23.9607C5.81577 23.9871 5.87894 24 5.94165 24C6.0528 24 6.16281 23.9594 6.24851 23.8818L8.89862 21.4813H13.2549C18.043 21.4813 21.9384 17.5866 21.9384 12.7996V8.6817C21.9384 3.89475 18.043 0 13.2549 0ZM21.0243 12.7996C21.0243 17.0827 17.5391 20.5672 13.2549 20.5672H8.72234C8.60894 20.5672 8.49962 20.6092 8.41547 20.6855L6.3987 22.5124V20.5565C6.3987 20.3628 6.27662 20.1901 6.09384 20.1258C2.99582 19.0305 0.914099 16.0865 0.914099 12.7996V8.6817C0.914099 4.39865 4.39933 0.914099 8.68349 0.914099H13.2549C17.5391 0.914099 21.0243 4.39865 21.0243 8.6817V12.7996Z" fill="#6A5CB0"/>
</svg>
