<svg width="140" height="140" viewBox="0 0 140 140" fill="none" xmlns="http://www.w3.org/2000/svg">
<rect opacity="0.5" width="140" height="140" rx="70" fill="#E1F2EF"/>
<rect opacity="0.9" x="20" y="20" width="100" height="100" rx="50" fill="#E1F2EF"/>
<g filter="url(#filter0_d_451_2973)">
<rect x="38" y="38" width="64" height="64" rx="32" fill="url(#paint0_linear_451_2973)" shape-rendering="crispEdges"/>
<g clip-path="url(#clip0_451_2973)">
<path d="M68.1487 73.0445L68.1489 73.0444L73.4512 70.1933C73.6046 70.1108 73.7001 69.9517 73.7008 69.7774C73.7013 69.6034 73.6071 69.4438 73.4541 69.36L68.1487 73.0445ZM68.1487 73.0445C68.0759 73.0837 67.9991 73.1021 67.9241 73.1021C67.8425 73.1021 67.7592 73.0803 67.6812 73.0337C67.5354 72.9466 67.4506 72.7971 67.4506 72.6271V66.8746C67.4506 66.7037 67.5358 66.5541 67.6828 66.4669L68.1487 73.0445ZM68.152 66.4589L73.4541 69.36L67.6829 66.4669C67.8298 66.3798 68.002 66.3769 68.152 66.4589C68.152 66.4589 68.152 66.4589 68.152 66.4589ZM67.857 71.9034V72.74L68.5938 72.3438L72.5566 70.2128L73.3684 69.7763L72.5598 69.3338L68.597 67.1655L67.857 66.7606V67.6041V71.9034Z" fill="white" stroke="white"/>
<path d="M81.8235 65.1966L81.8224 65.1856C81.8021 64.9924 81.5997 63.2742 80.7644 62.4002C79.7989 61.3723 78.7043 61.2474 78.1779 61.1875C78.1343 61.1826 78.0944 61.178 78.0587 61.1732L78.0167 61.1688C74.8439 60.9381 70.0522 60.9066 70.0042 60.9064L70 60.9062L69.9958 60.9064C69.9478 60.9066 65.1561 60.9381 61.9547 61.1688L61.9124 61.1732C61.8784 61.1778 61.8408 61.182 61.8 61.1868C61.2796 61.2468 60.1967 61.3719 59.2285 62.437C58.4329 63.3016 58.2029 64.9831 58.1793 65.1721L58.1765 65.1966C58.1694 65.277 58 67.1906 58 69.1118V70.9077C58 72.8288 58.1694 74.7424 58.1765 74.823L58.1778 74.8351C58.1981 75.0251 58.4003 76.7119 59.2318 77.5862C60.1396 78.5798 61.2875 78.7112 61.9049 78.7819C62.0025 78.7931 62.0865 78.8026 62.1439 78.8127L62.1993 78.8204C64.0313 78.9947 69.7751 79.0806 70.0187 79.084L70.026 79.0842L70.0333 79.084C70.0813 79.0839 74.8728 79.0524 78.0457 78.8217L78.0876 78.8173C78.1277 78.812 78.1727 78.8072 78.2222 78.8021C78.7396 78.7471 79.8167 78.6331 80.7715 77.5824C81.5671 76.7176 81.7973 75.0361 81.8207 74.8474L81.8235 74.8228C81.8306 74.7422 82.0002 72.8288 82.0002 70.9077V69.1118C82 67.1906 81.8306 65.2772 81.8235 65.1966ZM80.5936 70.9077C80.5936 72.6858 80.4383 74.517 80.4236 74.6851C80.364 75.1482 80.1213 76.212 79.7337 76.6334C79.136 77.2909 78.5221 77.3561 78.0739 77.4035C78.0197 77.4092 77.9695 77.4147 77.9241 77.4203C74.8552 77.6423 70.2444 77.6763 70.032 77.6776C69.7938 77.6741 64.134 77.5875 62.3579 77.4225C62.2669 77.4077 62.1686 77.3964 62.0649 77.3846C61.5392 77.3244 60.8196 77.242 60.2663 76.6334L60.2533 76.6194C59.8724 76.2227 59.6368 75.2278 59.5769 74.6906C59.5657 74.5635 59.4064 72.7107 59.4064 70.9077V69.1118C59.4064 67.3356 59.5613 65.5064 59.5764 65.3348C59.6476 64.7894 59.8948 63.79 60.2663 63.386C60.8823 62.7086 61.5317 62.6335 61.9613 62.5839C62.0023 62.5791 62.0406 62.5747 62.0759 62.5701C65.1895 62.3471 69.8334 62.314 70 62.3127C70.1666 62.3138 74.8089 62.3471 77.8948 62.5701C77.9327 62.5749 77.9741 62.5797 78.0186 62.5848C78.4604 62.6351 79.1282 62.7113 79.741 63.365L79.7467 63.371C80.1276 63.7678 80.3632 64.78 80.4231 65.3281C80.4337 65.448 80.5936 67.3049 80.5936 69.1118V70.9077Z" fill="white"/>
</g>
</g>
<defs>
<filter id="filter0_d_451_2973" x="22" y="30" width="96" height="96" filterUnits="userSpaceOnUse" color-interpolation-filters="sRGB">
<feFlood flood-opacity="0" result="BackgroundImageFix"/>
<feColorMatrix in="SourceAlpha" type="matrix" values="0 0 0 0 0 0 0 0 0 0 0 0 0 0 0 0 0 0 127 0" result="hardAlpha"/>
<feOffset dy="8"/>
<feGaussianBlur stdDeviation="8"/>
<feComposite in2="hardAlpha" operator="out"/>
<feColorMatrix type="matrix" values="0 0 0 0 0.705882 0 0 0 0 0.87451 0 0 0 0 0.843137 0 0 0 1 0"/>
<feBlend mode="normal" in2="BackgroundImageFix" result="effect1_dropShadow_451_2973"/>
<feBlend mode="normal" in="SourceGraphic" in2="effect1_dropShadow_451_2973" result="shape"/>
</filter>
<linearGradient id="paint0_linear_451_2973" x1="70" y1="38" x2="70" y2="102" gradientUnits="userSpaceOnUse">
<stop stop-color="#56B6A4"/>
<stop offset="1" stop-color="#208973"/>
</linearGradient>
<clipPath id="clip0_451_2973">
<rect width="24" height="24" fill="white" transform="translate(58 58)"/>
</clipPath>
</defs>
</svg>
