<svg width="178" height="178" viewBox="0 0 178 178" fill="none" xmlns="http://www.w3.org/2000/svg">
<rect x="16" y="16" width="146" height="146" rx="73" fill="#FBE5ED" fill-opacity="0.5"/>
<rect x="32" y="32" width="114" height="114" rx="57" fill="white" fill-opacity="0.9"/>
<path d="M49.4605 77.8H50.8805V66.24H49.4605V65.04H56.5205C57.2539 65.04 57.8939 65.1267 58.4405 65.3C59.0005 65.46 59.4605 65.6867 59.8205 65.98C60.1805 66.26 60.4472 66.6 60.6205 67C60.8072 67.4 60.9005 67.84 60.9005 68.32C60.9005 68.8133 60.8205 69.2467 60.6605 69.62C60.5005 69.9933 60.2805 70.3133 60.0005 70.58C59.7339 70.8467 59.4272 71.0667 59.0805 71.24C58.7339 71.4 58.3739 71.52 58.0005 71.6V71.7C58.3872 71.74 58.7872 71.84 59.2005 72C59.6139 72.1467 59.9872 72.36 60.3205 72.64C60.6539 72.92 60.9272 73.2667 61.1405 73.68C61.3539 74.0933 61.4605 74.5733 61.4605 75.12C61.4605 76.3467 61.0739 77.3 60.3005 77.98C59.5405 78.66 58.4339 79 56.9805 79H49.4605V77.8ZM53.6805 77.7H56.2605C57.0072 77.7 57.5805 77.5133 57.9805 77.14C58.3805 76.7533 58.5805 76.22 58.5805 75.54V74.64C58.5805 73.96 58.3805 73.4333 57.9805 73.06C57.5805 72.6733 57.0072 72.48 56.2605 72.48H53.6805V77.7ZM53.6805 71.18H55.9205C56.6139 71.18 57.1339 71.0133 57.4805 70.68C57.8405 70.3333 58.0205 69.84 58.0205 69.2V68.32C58.0205 67.68 57.8405 67.1933 57.4805 66.86C57.1339 66.5133 56.6139 66.34 55.9205 66.34H53.6805V71.18ZM68.2957 77.06L72.4357 72.96C73.0624 72.3333 73.5624 71.7 73.9357 71.06C74.3224 70.42 74.5157 69.72 74.5157 68.96V68.42C74.5157 67.62 74.2957 67.0133 73.8557 66.6C73.429 66.1733 72.8557 65.96 72.1357 65.96C71.549 65.96 71.069 66.0467 70.6957 66.22V66.32C70.909 66.4133 71.0824 66.5733 71.2157 66.8C71.3624 67.0267 71.4357 67.2733 71.4357 67.54C71.4357 67.9667 71.3024 68.3267 71.0357 68.62C70.7824 68.9 70.4224 69.04 69.9557 69.04C69.489 69.04 69.1157 68.8933 68.8357 68.6C68.569 68.3067 68.4357 67.92 68.4357 67.44C68.4357 67.08 68.529 66.74 68.7157 66.42C68.9157 66.1 69.1957 65.82 69.5557 65.58C69.929 65.34 70.3757 65.1533 70.8957 65.02C71.4157 64.8733 72.0024 64.8 72.6557 64.8C74.189 64.8 75.3757 65.14 76.2157 65.82C77.069 66.4867 77.4957 67.4267 77.4957 68.64C77.4957 69.2133 77.3957 69.74 77.1957 70.22C77.009 70.6867 76.749 71.1267 76.4157 71.54C76.0957 71.94 75.7224 72.3267 75.2957 72.7C74.869 73.06 74.4224 73.42 73.9557 73.78L70.3157 76.64V76.72H76.6557V74.9H77.9757V79H68.2957V77.06ZM84.3563 81.8H85.6363V70.38L84.3563 70.12V69.12L88.2563 68.32V70.12H88.3563C88.5563 69.64 88.8897 69.22 89.3563 68.86C89.8363 68.5 90.4497 68.32 91.1963 68.32C91.8363 68.32 92.4097 68.4467 92.9163 68.7C93.4363 68.9533 93.8763 69.32 94.2363 69.8C94.6097 70.2667 94.8897 70.84 95.0763 71.52C95.2763 72.1867 95.3763 72.94 95.3763 73.78C95.3763 74.62 95.2763 75.38 95.0763 76.06C94.8897 76.7267 94.6097 77.3 94.2363 77.78C93.8763 78.2467 93.4363 78.6067 92.9163 78.86C92.4097 79.1133 91.8363 79.24 91.1963 79.24C90.4363 79.24 89.823 79.06 89.3563 78.7C88.8897 78.34 88.5563 77.9267 88.3563 77.46H88.2563V81.8H89.9363V83H84.3563V81.8ZM90.3363 77.6C91.003 77.6 91.543 77.3733 91.9563 76.92C92.3697 76.4667 92.5763 75.8267 92.5763 75V72.56C92.5763 71.7333 92.3697 71.0933 91.9563 70.64C91.543 70.1867 91.003 69.96 90.3363 69.96C89.7763 69.96 89.2897 70.1333 88.8763 70.48C88.463 70.8133 88.2563 71.2733 88.2563 71.86V75.7C88.2563 76.2867 88.463 76.7533 88.8763 77.1C89.2897 77.4333 89.7763 77.6 90.3363 77.6ZM100.332 79.24C99.2516 79.24 98.4516 78.98 97.9316 78.46C97.4116 77.94 97.1516 77.22 97.1516 76.3C97.1516 75.2867 97.5183 74.52 98.2516 74C98.9983 73.48 100.158 73.22 101.732 73.22H103.152V71.96C103.152 71.1467 102.985 70.5333 102.652 70.12C102.318 69.6933 101.772 69.48 101.012 69.48C100.425 69.48 99.9716 69.5667 99.6516 69.74V69.82C99.785 69.9 99.9116 70.0267 100.032 70.2C100.165 70.36 100.232 70.5867 100.232 70.88C100.232 71.2667 100.112 71.5867 99.8716 71.84C99.645 72.08 99.305 72.2 98.8516 72.2C98.465 72.2 98.145 72.0733 97.8916 71.82C97.6516 71.5667 97.5316 71.2333 97.5316 70.82C97.5316 70.5 97.6183 70.1933 97.7916 69.9C97.9783 69.5933 98.2516 69.3267 98.6116 69.1C98.9716 68.86 99.4116 68.6733 99.9316 68.54C100.465 68.3933 101.078 68.32 101.772 68.32C103.105 68.32 104.105 68.6267 104.772 69.24C105.438 69.84 105.772 70.6867 105.772 71.78V77.82H107.052V78.82C106.852 78.9533 106.585 79.0533 106.252 79.12C105.918 79.2 105.578 79.24 105.232 79.24C104.565 79.24 104.085 79.08 103.792 78.76C103.498 78.4267 103.352 78.0067 103.352 77.5V77.44H103.252C103.158 77.6667 103.038 77.8867 102.892 78.1C102.745 78.3133 102.558 78.5067 102.332 78.68C102.105 78.84 101.825 78.9733 101.492 79.08C101.172 79.1867 100.785 79.24 100.332 79.24ZM101.352 77.64C101.885 77.64 102.318 77.5133 102.652 77.26C102.985 77.0067 103.152 76.58 103.152 75.98V74.3H102.012C101.212 74.3 100.638 74.4467 100.292 74.74C99.9583 75.02 99.7916 75.4267 99.7916 75.96V76.32C99.7916 76.7733 99.9316 77.1067 100.212 77.32C100.505 77.5333 100.885 77.64 101.352 77.64ZM112.623 79.24C111.916 79.24 111.296 79.1667 110.763 79.02C110.243 78.8733 109.81 78.68 109.463 78.44C109.116 78.2 108.856 77.9267 108.683 77.62C108.51 77.3133 108.423 77 108.423 76.68C108.423 76.2133 108.543 75.8533 108.783 75.6C109.036 75.3467 109.376 75.22 109.803 75.22C110.243 75.22 110.576 75.34 110.803 75.58C111.043 75.82 111.163 76.12 111.163 76.48C111.163 76.7733 111.09 77.0267 110.943 77.24C110.81 77.44 110.65 77.5933 110.463 77.7V77.78C110.636 77.8733 110.856 77.9533 111.123 78.02C111.403 78.0733 111.776 78.1 112.243 78.1C113.07 78.1 113.663 77.94 114.023 77.62C114.383 77.3 114.563 76.8667 114.563 76.32V76C114.563 75.48 114.39 75.0667 114.043 74.76C113.71 74.44 113.183 74.28 112.463 74.28H111.183V73H112.403C113.016 73 113.483 72.86 113.803 72.58C114.136 72.2867 114.303 71.8933 114.303 71.4V71.12C114.303 70.6 114.156 70.1933 113.863 69.9C113.583 69.6067 113.143 69.46 112.543 69.46C111.876 69.46 111.363 69.6133 111.003 69.92C110.656 70.2267 110.483 70.64 110.483 71.16V71.7H108.743V68.56H110.483V69.52H110.563C110.816 69.1733 111.156 68.8867 111.583 68.66C112.01 68.4333 112.616 68.32 113.403 68.32C114.616 68.32 115.523 68.5667 116.123 69.06C116.736 69.54 117.043 70.2133 117.043 71.08C117.043 71.6933 116.843 72.2133 116.443 72.64C116.043 73.0533 115.496 73.32 114.803 73.44V73.56C115.643 73.68 116.276 73.96 116.703 74.4C117.13 74.84 117.343 75.4 117.343 76.08C117.343 76.56 117.23 76.9933 117.003 77.38C116.776 77.7667 116.456 78.1 116.043 78.38C115.643 78.66 115.15 78.8733 114.563 79.02C113.99 79.1667 113.343 79.24 112.623 79.24ZM122.148 79.24C121.068 79.24 120.268 78.98 119.748 78.46C119.228 77.94 118.968 77.22 118.968 76.3C118.968 75.2867 119.335 74.52 120.068 74C120.815 73.48 121.975 73.22 123.548 73.22H124.968V71.96C124.968 71.1467 124.801 70.5333 124.468 70.12C124.135 69.6933 123.588 69.48 122.828 69.48C122.241 69.48 121.788 69.5667 121.468 69.74V69.82C121.601 69.9 121.728 70.0267 121.848 70.2C121.981 70.36 122.048 70.5867 122.048 70.88C122.048 71.2667 121.928 71.5867 121.688 71.84C121.461 72.08 121.121 72.2 120.668 72.2C120.281 72.2 119.961 72.0733 119.708 71.82C119.468 71.5667 119.348 71.2333 119.348 70.82C119.348 70.5 119.435 70.1933 119.608 69.9C119.795 69.5933 120.068 69.3267 120.428 69.1C120.788 68.86 121.228 68.6733 121.748 68.54C122.281 68.3933 122.895 68.32 123.588 68.32C124.921 68.32 125.921 68.6267 126.588 69.24C127.255 69.84 127.588 70.6867 127.588 71.78V77.82H128.868V78.82C128.668 78.9533 128.401 79.0533 128.068 79.12C127.735 79.2 127.395 79.24 127.048 79.24C126.381 79.24 125.901 79.08 125.608 78.76C125.315 78.4267 125.168 78.0067 125.168 77.5V77.44H125.068C124.975 77.6667 124.855 77.8867 124.708 78.1C124.561 78.3133 124.375 78.5067 124.148 78.68C123.921 78.84 123.641 78.9733 123.308 79.08C122.988 79.1867 122.601 79.24 122.148 79.24ZM123.168 77.64C123.701 77.64 124.135 77.5133 124.468 77.26C124.801 77.0067 124.968 76.58 124.968 75.98V74.3H123.828C123.028 74.3 122.455 74.4467 122.108 74.74C121.775 75.02 121.608 75.4267 121.608 75.96V76.32C121.608 76.7733 121.748 77.1067 122.028 77.32C122.321 77.5333 122.701 77.64 123.168 77.64ZM67.6582 89.6035V90.6494H63.9189V89.6035H67.6582ZM64.1035 89.6035V97H62.8389V89.6035H64.1035ZM68.7793 89.6035V97H67.5078V89.6035H68.7793ZM72.0742 91.0254V99.8438H70.8027V89.6035H71.9648L72.0742 91.0254ZM77.0576 93.2402V93.3838C77.0576 93.9215 76.9938 94.4206 76.8662 94.8809C76.7386 95.3366 76.5518 95.7331 76.3057 96.0703C76.0641 96.4076 75.7656 96.6696 75.4102 96.8564C75.0547 97.0433 74.6468 97.1367 74.1865 97.1367C73.7171 97.1367 73.3024 97.0592 72.9424 96.9043C72.5824 96.7493 72.277 96.5238 72.0264 96.2275C71.7757 95.9313 71.5752 95.5758 71.4248 95.1611C71.279 94.7464 71.1787 94.2793 71.124 93.7598V92.9941C71.1787 92.4473 71.2812 91.9574 71.4316 91.5244C71.582 91.0915 71.7803 90.7223 72.0264 90.417C72.277 90.1071 72.5801 89.8724 72.9355 89.7129C73.291 89.5488 73.7012 89.4668 74.166 89.4668C74.6309 89.4668 75.0433 89.5579 75.4033 89.7402C75.7633 89.918 76.0664 90.1732 76.3125 90.5059C76.5586 90.8385 76.7432 91.2373 76.8662 91.7021C76.9938 92.1624 77.0576 92.6751 77.0576 93.2402ZM75.7861 93.3838V93.2402C75.7861 92.8711 75.7474 92.5247 75.6699 92.2012C75.5924 91.873 75.4717 91.5859 75.3076 91.3398C75.1481 91.0892 74.943 90.8932 74.6924 90.752C74.4417 90.6061 74.1432 90.5332 73.7969 90.5332C73.4779 90.5332 73.1999 90.5879 72.9629 90.6973C72.7305 90.8066 72.5322 90.9548 72.3682 91.1416C72.2041 91.3239 72.0697 91.5335 71.9648 91.7705C71.8646 92.0029 71.7894 92.2445 71.7393 92.4951V94.2656C71.8304 94.5846 71.958 94.8854 72.1221 95.168C72.2861 95.446 72.5049 95.6715 72.7783 95.8447C73.0518 96.0133 73.3958 96.0977 73.8105 96.0977C74.1523 96.0977 74.4463 96.027 74.6924 95.8857C74.943 95.7399 75.1481 95.5417 75.3076 95.291C75.4717 95.0404 75.5924 94.7533 75.6699 94.4297C75.7474 94.1016 75.7861 93.7529 75.7861 93.3838ZM78.3359 93.3838V93.2266C78.3359 92.6934 78.4134 92.1989 78.5684 91.7432C78.7233 91.2829 78.9466 90.8841 79.2383 90.5469C79.5299 90.2051 79.8831 89.9408 80.2979 89.7539C80.7126 89.5625 81.1774 89.4668 81.6924 89.4668C82.2119 89.4668 82.679 89.5625 83.0938 89.7539C83.513 89.9408 83.8685 90.2051 84.1602 90.5469C84.4564 90.8841 84.682 91.2829 84.8369 91.7432C84.9919 92.1989 85.0693 92.6934 85.0693 93.2266V93.3838C85.0693 93.917 84.9919 94.4115 84.8369 94.8672C84.682 95.3229 84.4564 95.7217 84.1602 96.0635C83.8685 96.4007 83.5153 96.665 83.1006 96.8564C82.6904 97.0433 82.2256 97.1367 81.7061 97.1367C81.1865 97.1367 80.7194 97.0433 80.3047 96.8564C79.89 96.665 79.5345 96.4007 79.2383 96.0635C78.9466 95.7217 78.7233 95.3229 78.5684 94.8672C78.4134 94.4115 78.3359 93.917 78.3359 93.3838ZM79.6006 93.2266V93.3838C79.6006 93.7529 79.6439 94.1016 79.7305 94.4297C79.8171 94.7533 79.9469 95.0404 80.1201 95.291C80.2979 95.5417 80.5189 95.7399 80.7832 95.8857C81.0475 96.027 81.3551 96.0977 81.7061 96.0977C82.0524 96.0977 82.3555 96.027 82.6152 95.8857C82.8796 95.7399 83.0983 95.5417 83.2715 95.291C83.4447 95.0404 83.5745 94.7533 83.6611 94.4297C83.7523 94.1016 83.7979 93.7529 83.7979 93.3838V93.2266C83.7979 92.862 83.7523 92.5179 83.6611 92.1943C83.5745 91.8662 83.4424 91.5768 83.2646 91.3262C83.0915 91.071 82.8727 90.8704 82.6084 90.7246C82.3486 90.5788 82.0433 90.5059 81.6924 90.5059C81.346 90.5059 81.0407 90.5788 80.7764 90.7246C80.5166 90.8704 80.2979 91.071 80.1201 91.3262C79.9469 91.5768 79.8171 91.8662 79.7305 92.1943C79.6439 92.5179 79.6006 92.862 79.6006 93.2266ZM92.2334 89.6035V97H90.9688V89.6035H92.2334ZM91.8027 93.001V94.04C91.5475 94.1357 91.2878 94.2223 91.0234 94.2998C90.7637 94.3727 90.488 94.432 90.1963 94.4775C89.9092 94.5186 89.597 94.5391 89.2598 94.5391C88.6764 94.5391 88.1706 94.4388 87.7422 94.2383C87.3138 94.0332 86.9834 93.7256 86.751 93.3154C86.5186 92.9007 86.4023 92.3789 86.4023 91.75V89.5898H87.667V91.75C87.667 92.1602 87.7285 92.4928 87.8516 92.748C87.9746 93.0033 88.1546 93.1924 88.3916 93.3154C88.6286 93.4339 88.918 93.4932 89.2598 93.4932C89.5879 93.4932 89.8955 93.4727 90.1826 93.4316C90.4743 93.3861 90.7523 93.3268 91.0166 93.2539C91.2855 93.181 91.5475 93.0967 91.8027 93.001ZM99.2881 92.8096V93.835H95.3779V92.8096H99.2881ZM95.6445 89.6035V97H94.3799V89.6035H95.6445ZM100.313 89.6035V97H99.042V89.6035H100.313ZM105.42 97.1367C104.905 97.1367 104.438 97.0501 104.019 96.877C103.604 96.6992 103.246 96.4508 102.945 96.1318C102.649 95.8128 102.421 95.4346 102.262 94.9971C102.102 94.5596 102.022 94.0811 102.022 93.5615V93.2744C102.022 92.6729 102.111 92.1374 102.289 91.668C102.467 91.194 102.708 90.793 103.014 90.4648C103.319 90.1367 103.665 89.8883 104.053 89.7197C104.44 89.5511 104.841 89.4668 105.256 89.4668C105.785 89.4668 106.24 89.5579 106.623 89.7402C107.01 89.9225 107.327 90.1777 107.573 90.5059C107.819 90.8294 108.002 91.2122 108.12 91.6543C108.239 92.0918 108.298 92.5703 108.298 93.0898V93.6572H102.774V92.625H107.033V92.5293C107.015 92.2012 106.947 91.8822 106.828 91.5723C106.714 91.2624 106.532 91.0072 106.281 90.8066C106.031 90.6061 105.689 90.5059 105.256 90.5059C104.969 90.5059 104.704 90.5674 104.463 90.6904C104.221 90.8089 104.014 90.9867 103.841 91.2236C103.668 91.4606 103.533 91.75 103.438 92.0918C103.342 92.4336 103.294 92.8278 103.294 93.2744V93.5615C103.294 93.9124 103.342 94.2428 103.438 94.5527C103.538 94.8581 103.681 95.127 103.868 95.3594C104.06 95.5918 104.29 95.7741 104.559 95.9062C104.832 96.0384 105.142 96.1045 105.488 96.1045C105.935 96.1045 106.313 96.0133 106.623 95.8311C106.933 95.6488 107.204 95.4049 107.437 95.0996L108.202 95.708C108.043 95.9495 107.84 96.1797 107.594 96.3984C107.348 96.6172 107.045 96.7949 106.685 96.9316C106.329 97.0684 105.908 97.1367 105.42 97.1367ZM112.844 97.1367C112.329 97.1367 111.862 97.0501 111.442 96.877C111.028 96.6992 110.67 96.4508 110.369 96.1318C110.073 95.8128 109.845 95.4346 109.686 94.9971C109.526 94.5596 109.446 94.0811 109.446 93.5615V93.2744C109.446 92.6729 109.535 92.1374 109.713 91.668C109.891 91.194 110.132 90.793 110.438 90.4648C110.743 90.1367 111.089 89.8883 111.477 89.7197C111.864 89.5511 112.265 89.4668 112.68 89.4668C113.208 89.4668 113.664 89.5579 114.047 89.7402C114.434 89.9225 114.751 90.1777 114.997 90.5059C115.243 90.8294 115.425 91.2122 115.544 91.6543C115.662 92.0918 115.722 92.5703 115.722 93.0898V93.6572H110.198V92.625H114.457V92.5293C114.439 92.2012 114.37 91.8822 114.252 91.5723C114.138 91.2624 113.956 91.0072 113.705 90.8066C113.454 90.6061 113.113 90.5059 112.68 90.5059C112.393 90.5059 112.128 90.5674 111.887 90.6904C111.645 90.8089 111.438 90.9867 111.265 91.2236C111.091 91.4606 110.957 91.75 110.861 92.0918C110.766 92.4336 110.718 92.8278 110.718 93.2744V93.5615C110.718 93.9124 110.766 94.2428 110.861 94.5527C110.962 94.8581 111.105 95.127 111.292 95.3594C111.483 95.5918 111.714 95.7741 111.982 95.9062C112.256 96.0384 112.566 96.1045 112.912 96.1045C113.359 96.1045 113.737 96.0133 114.047 95.8311C114.357 95.6488 114.628 95.4049 114.86 95.0996L115.626 95.708C115.466 95.9495 115.264 96.1797 115.018 96.3984C114.771 96.6172 114.468 96.7949 114.108 96.9316C113.753 97.0684 113.331 97.1367 112.844 97.1367ZM70.5977 107.604V115H69.3262V107.604H70.5977ZM73.0791 107.604V108.629H66.8926V107.604H73.0791ZM75.6904 112.997L79.1016 107.604H80.373V115H79.1016V109.606L75.6904 115H74.4326V107.604H75.6904V112.997ZM85.418 107.604V115H84.1465V107.604H85.418ZM87.8994 107.604V108.629H81.7129V107.604H87.8994ZM93.3955 113.735V109.928C93.3955 109.636 93.3363 109.383 93.2178 109.169C93.1038 108.95 92.9307 108.782 92.6982 108.663C92.4658 108.545 92.1787 108.485 91.8369 108.485C91.5179 108.485 91.2376 108.54 90.9961 108.649C90.7591 108.759 90.5723 108.902 90.4355 109.08C90.3034 109.258 90.2373 109.449 90.2373 109.654H88.9727C88.9727 109.39 89.041 109.128 89.1777 108.868C89.3145 108.608 89.5104 108.374 89.7656 108.164C90.0254 107.95 90.3353 107.781 90.6953 107.658C91.0599 107.531 91.4655 107.467 91.9121 107.467C92.4499 107.467 92.9238 107.558 93.334 107.74C93.7487 107.923 94.0723 108.198 94.3047 108.567C94.5417 108.932 94.6602 109.39 94.6602 109.941V113.387C94.6602 113.633 94.6807 113.895 94.7217 114.173C94.7673 114.451 94.8333 114.69 94.9199 114.891V115H93.6006C93.5368 114.854 93.4867 114.66 93.4502 114.419C93.4137 114.173 93.3955 113.945 93.3955 113.735ZM93.6143 110.516L93.6279 111.404H92.3496C91.9896 111.404 91.6683 111.434 91.3857 111.493C91.1032 111.548 90.8662 111.632 90.6748 111.746C90.4834 111.86 90.3376 112.004 90.2373 112.177C90.137 112.345 90.0869 112.544 90.0869 112.771C90.0869 113.004 90.1393 113.216 90.2441 113.407C90.349 113.599 90.5062 113.751 90.7158 113.865C90.93 113.975 91.1921 114.029 91.502 114.029C91.8893 114.029 92.2311 113.947 92.5273 113.783C92.8236 113.619 93.0583 113.419 93.2314 113.182C93.4092 112.945 93.5049 112.715 93.5186 112.491L94.0586 113.1C94.0267 113.291 93.9401 113.503 93.7988 113.735C93.6576 113.968 93.4684 114.191 93.2314 114.405C92.999 114.615 92.721 114.79 92.3975 114.932C92.0785 115.068 91.7184 115.137 91.3174 115.137C90.8161 115.137 90.3763 115.039 89.998 114.843C89.6243 114.647 89.3327 114.385 89.123 114.057C88.918 113.724 88.8154 113.353 88.8154 112.942C88.8154 112.546 88.8929 112.197 89.0479 111.896C89.2028 111.591 89.4261 111.338 89.7178 111.138C90.0094 110.933 90.3604 110.778 90.7705 110.673C91.1807 110.568 91.6387 110.516 92.1445 110.516H93.6143ZM101.667 110.81V111.835H97.7568V110.81H101.667ZM98.0234 107.604V115H96.7588V107.604H98.0234ZM102.692 107.604V115H101.421V107.604H102.692ZM109.091 113.735V109.928C109.091 109.636 109.032 109.383 108.913 109.169C108.799 108.95 108.626 108.782 108.394 108.663C108.161 108.545 107.874 108.485 107.532 108.485C107.213 108.485 106.933 108.54 106.691 108.649C106.454 108.759 106.268 108.902 106.131 109.08C105.999 109.258 105.933 109.449 105.933 109.654H104.668C104.668 109.39 104.736 109.128 104.873 108.868C105.01 108.608 105.206 108.374 105.461 108.164C105.721 107.95 106.031 107.781 106.391 107.658C106.755 107.531 107.161 107.467 107.607 107.467C108.145 107.467 108.619 107.558 109.029 107.74C109.444 107.923 109.768 108.198 110 108.567C110.237 108.932 110.355 109.39 110.355 109.941V113.387C110.355 113.633 110.376 113.895 110.417 114.173C110.463 114.451 110.529 114.69 110.615 114.891V115H109.296C109.232 114.854 109.182 114.66 109.146 114.419C109.109 114.173 109.091 113.945 109.091 113.735ZM109.31 110.516L109.323 111.404H108.045C107.685 111.404 107.364 111.434 107.081 111.493C106.799 111.548 106.562 111.632 106.37 111.746C106.179 111.86 106.033 112.004 105.933 112.177C105.832 112.345 105.782 112.544 105.782 112.771C105.782 113.004 105.835 113.216 105.939 113.407C106.044 113.599 106.201 113.751 106.411 113.865C106.625 113.975 106.887 114.029 107.197 114.029C107.585 114.029 107.926 113.947 108.223 113.783C108.519 113.619 108.754 113.419 108.927 113.182C109.104 112.945 109.2 112.715 109.214 112.491L109.754 113.1C109.722 113.291 109.635 113.503 109.494 113.735C109.353 113.968 109.164 114.191 108.927 114.405C108.694 114.615 108.416 114.79 108.093 114.932C107.774 115.068 107.414 115.137 107.013 115.137C106.511 115.137 106.072 115.039 105.693 114.843C105.32 114.647 105.028 114.385 104.818 114.057C104.613 113.724 104.511 113.353 104.511 112.942C104.511 112.546 104.588 112.197 104.743 111.896C104.898 111.591 105.121 111.338 105.413 111.138C105.705 110.933 106.056 110.778 106.466 110.673C106.876 110.568 107.334 110.516 107.84 110.516H109.31Z" fill="#EA366E"/>
<rect x="0.5" y="0.5" width="177" height="177" rx="88.5" stroke="#F7BED3" stroke-opacity="0.75"/>
</svg>
